<svg xmlns="http://www.w3.org/2000/svg" xmlns:xlink="http://www.w3.org/1999/xlink" style="isolation:isolate" width="32pt" height="32pt" viewBox="0 0 32 32"><path fill="#678ADE" d="M 30.383 13.995 L 30.383 17.964 L 30.383 17.964 Q 28.92 17.964 28.037 18.557 L 28.037 18.557 L 28.037 18.557 Q 27.153 19.15 27.153 20.205 L 27.153 20.205 L 27.153 23.474 L 27.153 23.474 Q 27.153 25.32 26.507 26.243 L 26.507 26.243 L 26.507 26.243 Q 25.861 27.166 24.411 27.588 L 24.411 27.588 L 24.411 27.588 Q 22.961 28.01 20.377 28.01 L 20.377 28.01 L 20.377 24.344 L 20.377 24.344 Q 21.801 24.292 22.341 23.956 L 22.341 23.956 L 22.341 23.956 Q 22.882 23.619 22.882 22.934 L 22.882 22.934 L 22.882 19.295 L 22.882 19.295 Q 22.882 17.871 23.62 17.094 L 23.62 17.094 L 23.62 17.094 Q 24.358 16.316 26.046 16.052 L 26.046 16.052 L 26.046 15.894 L 26.046 15.894 Q 24.372 15.656 23.627 14.859 L 23.627 14.859 L 23.627 14.859 Q 22.882 14.061 22.882 12.572 L 22.882 12.572 L 22.882 8.999 L 22.882 8.999 Q 22.882 8.485 22.625 8.201 L 22.625 8.201 L 22.625 8.201 Q 22.368 7.918 21.966 7.779 L 21.966 7.779 L 21.966 7.779 Q 21.563 7.641 20.377 7.601 L 20.377 7.601 L 20.377 3.923 L 20.377 3.923 Q 22.961 3.923 24.411 4.338 L 24.411 4.338 L 24.411 4.338 Q 25.861 4.754 26.507 5.663 L 26.507 5.663 L 26.507 5.663 Q 27.153 6.573 27.153 8.406 L 27.153 8.406 L 27.153 11.754 L 27.153 11.754 Q 27.153 12.822 28.01 13.409 L 28.01 13.409 L 28.01 13.409 Q 28.867 13.995 30.383 13.995 L 30.383 13.995 L 30.383 13.995 Z M 1.604 17.964 L 1.604 13.995 L 1.604 13.995 Q 3.12 13.995 3.983 13.409 L 3.983 13.409 L 3.983 13.409 Q 4.847 12.822 4.847 11.754 L 4.847 11.754 L 4.847 8.406 L 4.847 8.406 Q 4.847 6.573 5.493 5.663 L 5.493 5.663 L 5.493 5.663 Q 6.139 4.754 7.595 4.338 L 7.595 4.338 L 7.595 4.338 Q 9.052 3.923 11.623 3.923 L 11.623 3.923 L 11.623 7.601 L 11.623 7.601 Q 10.45 7.641 10.034 7.779 L 10.034 7.779 L 10.034 7.779 Q 9.619 7.918 9.369 8.208 L 9.369 8.208 L 9.369 8.208 Q 9.118 8.498 9.118 8.999 L 9.118 8.999 L 9.118 12.572 L 9.118 12.572 Q 9.118 14.061 8.373 14.859 L 8.373 14.859 L 8.373 14.859 Q 7.628 15.656 5.954 15.894 L 5.954 15.894 L 5.954 16.052 L 5.954 16.052 Q 7.642 16.316 8.38 17.094 L 8.38 17.094 L 8.38 17.094 Q 9.118 17.871 9.118 19.295 L 9.118 19.295 L 9.118 22.934 L 9.118 22.934 Q 9.118 23.448 9.395 23.738 L 9.395 23.738 L 9.395 23.738 Q 9.672 24.028 10.133 24.167 L 10.133 24.167 L 10.133 24.167 Q 10.595 24.305 11.623 24.344 L 11.623 24.344 L 11.623 28.01 L 11.623 28.01 Q 9.026 28.01 7.576 27.588 L 7.576 27.588 L 7.576 27.588 Q 6.125 27.166 5.486 26.25 L 5.486 26.25 L 5.486 26.25 Q 4.847 25.333 4.847 23.474 L 4.847 23.474 L 4.847 20.205 L 4.847 20.205 Q 4.847 19.15 3.963 18.557 L 3.963 18.557 L 3.963 18.557 Q 3.08 17.964 1.604 17.964 L 1.604 17.964 L 1.604 17.964 Z"/></svg>